# xmcd
#
# Track frame offsets: 
#        150
#        18277
#        37836
#        55138
#        74560
#        92412
#        116703
#        130923
#        146500
#        166878
#        182582
#        199989
#        213881
#        230816
#        250617
#        266541
#        282842
#        298711
#        314223
#        328299
#
# Disc length: 4564 seconds
#
# Revision: 0
# Processed by: cddbd v1.5.2PL0 Copyright (c) Steve Scherf et al.
# Submitted via: ExactAudioCopy v0.99pb5
#
DISCID=3111d214
DTITLE=Анжелика Агурбаш - Grand collection
DYEAR=2010
DGENRE=Pop
TTITLE0=Я буду жить для тебя
TTITLE1=Река
TTITLE2=Моя мания
TTITLE3=Нелюбимая
TTITLE4=Я гарантирую рай
TTITLE5=Роза на снегу
TTITLE6=Будь мужчиной
TTITLE7=До свидания, Дима
TTITLE8=Любовь! Любовь? Любовь...
TTITLE9=Влюбленная душа (дуэт с Ф.Киркоровым)
TTITLE10=Как звезда рождается любовь
TTITLE11=В городе осень
TTITLE12=Гаснут огни
TTITLE13=Голуби
TTITLE14=Я замерзаю...
TTITLE15=Моя любовь
TTITLE16=Я Валентинка
TTITLE17=У тебя есть я (дуэт с А.Буйновым)
TTITLE18=Правила любви
TTITLE19=Love me tonight
EXTD=
EXTT0=
EXTT1=
EXTT2=
EXTT3=
EXTT4=
EXTT5=
EXTT6=
EXTT7=
EXTT8=
EXTT9=
EXTT10=
EXTT11=
EXTT12=
EXTT13=
EXTT14=
EXTT15=
EXTT16=
EXTT17=
EXTT18=
EXTT19=
PLAYORDER=
